<svg width="16" height="17" viewBox="0 0 16 17" fill="none" xmlns="http://www.w3.org/2000/svg">
<path d="M12.6973 9.66602L8.43164 14.1348C8.30469 14.2617 8.15234 14.3125 8 14.3125C7.82227 14.3125 7.66992 14.2617 7.54297 14.1348L3.27734 9.66602C3.04883 9.41211 3.04883 9.03125 3.30273 8.80273C3.53125 8.57422 3.9375 8.57422 4.16602 8.82812L7.39062 12.2051V3.57227C7.39062 3.2168 7.64453 2.96289 7.97461 2.96289C8.2793 2.96289 8.60938 3.2168 8.60938 3.57227V12.2051L11.8086 8.82812C12.0371 8.57422 12.4434 8.57422 12.6719 8.80273C12.9258 9.03125 12.9258 9.41211 12.6973 9.66602Z" fill="white"/>
</svg>
