<svg width="78" height="78" viewBox="0 0 78 78" fill="none" xmlns="http://www.w3.org/2000/svg">
<rect width="78" height="78" rx="39" fill="#5E2569"/>
<path d="M64.625 50.1562C64.625 50.877 63.9844 51.4375 63.3438 51.4375H59.5C57.8184 51.4375 56.377 50.3965 55.8164 48.875H53.334C53.1738 49.2754 53.0137 49.5957 52.7734 49.916L52.0527 50.877C50.9316 52.2383 49.0098 52.5586 47.4883 51.8379L45.8066 53.8398C44.3652 55.5215 41.8027 55.8418 40.041 54.4004L39.5605 54C38.6797 54.7207 37.5586 55.2012 36.3574 55.2812C36.1172 55.2812 35.877 55.2812 35.7168 55.2812C34.2754 55.2812 32.9141 54.8008 31.793 53.9199L25.3066 48.875H22.1035C21.543 50.3965 20.1016 51.4375 18.5 51.4375H15.9375C15.2168 51.4375 14.6562 50.877 14.6562 50.1562C14.6562 49.5156 15.2168 48.875 15.9375 48.875H18.5C19.1406 48.875 19.7812 48.3145 19.7812 47.5938V30.9375H14.6562C13.9355 30.9375 13.375 30.377 13.375 29.6562C13.375 29.0156 13.9355 28.375 14.6562 28.375H23.7852C26.5078 25.7324 29.9512 23.9707 33.6348 23.4902C34.3555 23.3301 34.9961 23.8906 35.0762 24.5312C35.2363 25.252 34.7559 25.8926 34.0352 25.9727C30.752 26.4531 27.6289 28.1348 25.3066 30.5371L24.9062 30.9375H22.3438V46.3125H26.1875L33.3945 51.918C34.1953 52.5586 35.0762 52.7988 36.0371 52.7188C36.998 52.6387 37.8789 52.1582 38.4395 51.4375L39.3203 50.5566L40.3613 51.2773L41.7227 52.3984C42.2832 52.959 43.3242 52.8789 43.8047 52.1582L47.0078 48.2344L48.4492 49.4355C48.9297 49.8359 49.6504 49.7559 50.0508 49.1953L50.7715 48.3145C51.1719 47.834 51.0918 47.1133 50.6113 46.7129L41.9629 39.666C41.4023 39.1855 41.3223 38.3848 41.7227 37.8242C42.2031 37.3438 43.0039 37.1836 43.5645 37.6641L52.2129 44.7109C52.7734 45.1914 53.0938 45.752 53.334 46.3125H55.6562V30.9375H53.0137L52.6133 30.6172C49.7305 27.5742 45.7266 25.8125 41.8027 25.8125H41.1621C40.8418 25.8125 40.6016 25.9727 40.3613 26.1328L32.9141 33.1797C32.1133 33.9004 32.1934 35.1016 32.834 35.7422C32.9941 35.9023 33.4746 36.3027 34.1152 36.3027C34.5156 36.3027 34.916 36.1426 35.2363 35.8223L35.3164 35.9023C35.957 35.1816 37.5586 33.6602 41.4023 30.1367C41.8828 29.6562 42.6836 29.7363 43.1641 30.2168C43.6445 30.7773 43.6445 31.5781 43.084 32.0586L36.998 37.7441C36.1973 38.4648 35.2363 38.8652 34.1953 38.8652C34.1152 38.8652 34.0352 38.8652 33.9551 38.8652C32.5938 38.7852 31.4727 38.0645 30.9121 37.4238C29.3105 35.6621 29.3906 33.0996 31.0723 31.418V31.3379L38.5996 24.291C39.3203 23.6504 40.2012 23.25 41.1621 23.25H41.8027C46.2871 23.25 50.6914 25.1719 54.0547 28.375H63.3438C63.9844 28.375 64.625 29.0156 64.625 29.6562C64.625 30.377 63.9844 30.9375 63.3438 30.9375H58.2188V47.5938C58.2188 48.3145 58.7793 48.9551 59.4199 48.9551L63.3438 48.875C63.9844 48.875 64.625 49.5156 64.625 50.1562Z" fill="white"/>
</svg>
