<svg width="16" height="23" viewBox="0 0 16 23" fill="none" xmlns="http://www.w3.org/2000/svg">
<path d="M8 5.61816C4.39453 5.61816 1.5 8.53809 1.5 12.1182C1.5 15.7236 4.39453 18.6182 8 18.6182C11.5801 18.6182 14.5 15.7236 14.5 12.1182C14.5 8.53809 11.5801 5.61816 8 5.61816ZM8 8.86816C8.43164 8.86816 8.8125 9.24902 8.8125 9.68066C8.8125 10.1377 8.43164 10.4932 8 10.4932C7.54297 10.4932 7.1875 10.1377 7.1875 9.68066C7.1875 9.24902 7.54297 8.86816 8 8.86816ZM9.01562 15.3682H6.98438C6.62891 15.3682 6.375 15.1143 6.375 14.7588C6.375 14.4287 6.62891 14.1494 6.98438 14.1494H7.39062V12.5244H7.1875C6.83203 12.5244 6.57812 12.2705 6.57812 11.915C6.57812 11.585 6.83203 11.3057 7.1875 11.3057H8C8.33008 11.3057 8.60938 11.585 8.60938 11.915V14.1494H9.01562C9.3457 14.1494 9.625 14.4287 9.625 14.7588C9.625 15.1143 9.3457 15.3682 9.01562 15.3682Z" fill="#763B82"/>
</svg>
