<svg width="14" height="14" viewBox="0 0 14 14" fill="none" xmlns="http://www.w3.org/2000/svg">
<path d="M7 13.6111C3.39453 13.6111 0.5 10.7166 0.5 7.11108C0.5 3.53101 3.39453 0.611084 7 0.611084C10.5801 0.611084 13.5 3.53101 13.5 7.11108C13.5 10.7166 10.5801 13.6111 7 13.6111ZM6.39062 7.11108C6.39062 7.31421 6.49219 7.51733 6.64453 7.6189L9.08203 9.2439C9.36133 9.44702 9.74219 9.37085 9.91992 9.09155C10.123 8.81226 10.0469 8.4314 9.76758 8.22827L7.60938 6.8064V3.65796C7.60938 3.32788 7.33008 3.04858 6.97461 3.04858C6.64453 3.04858 6.36523 3.32788 6.36523 3.65796L6.39062 7.11108Z" fill="#83478F"/>
</svg>
