<svg width="220" height="63" viewBox="0 0 220 63" fill="none" xmlns="http://www.w3.org/2000/svg">
<g clip-path="url(#clip0_1_7767)">
<path d="M44.2166 21.3032V25.6346C44.2166 27.9808 46.2018 29.9661 48.548 29.9661H56.8499L52.5184 21.3032H44.2166Z" fill="#5E2569"/>
<path d="M48.548 33.2146C46.2018 33.2146 44.2166 35.1998 44.2166 37.546V41.8774H62.986L58.6546 33.3951H48.548V33.2146Z" fill="#5E2569"/>
<path fill-rule="evenodd" clip-rule="evenodd" d="M44.2166 21.3032V25.6346C44.2166 27.9808 46.2018 29.9661 48.548 29.9661H56.8499L52.5184 21.3032H44.2166Z" fill="#5E2569"/>
<path fill-rule="evenodd" clip-rule="evenodd" d="M48.548 33.2146C46.2018 33.2146 44.2166 35.1998 44.2166 37.546V41.8774H62.986L58.6546 33.3951H48.548V33.2146Z" fill="#5E2569"/>
<path d="M37.5389 44.4041C35.1928 44.4041 33.2075 46.3893 33.2075 48.7355V57.0374L41.8704 52.7059V44.4041H37.5389Z" fill="#5E2569"/>
<path d="M21.2961 44.4041V62.9931L29.598 58.8421V48.7355C29.598 46.3893 27.9737 44.5845 25.6276 44.4041C25.6276 44.4041 25.6276 44.4041 25.4471 44.4041H21.2961Z" fill="#5E2569"/>
<path fill-rule="evenodd" clip-rule="evenodd" d="M37.5389 44.4041C35.1928 44.4041 33.2075 46.3893 33.2075 48.7355V57.0374L41.8704 52.7059V44.4041H37.5389Z" fill="#5E2569"/>
<path fill-rule="evenodd" clip-rule="evenodd" d="M21.2961 44.4041V62.9931L29.598 58.8421V48.7355C29.598 46.3893 27.9737 44.5845 25.6276 44.4041C25.6276 44.4041 25.6276 44.4041 25.4471 44.4041H21.2961Z" fill="#5E2569"/>
<path d="M0.360952 21.3032H0L4.33142 29.6051H14.4381C16.7843 29.6051 18.589 27.9808 18.7695 25.6346C18.7695 25.6346 18.7695 25.6346 18.7695 25.4542V21.3032H0.360952Z" fill="#5E2569"/>
<path d="M6.13617 33.2146L10.4676 41.8774H18.589V37.546C18.589 35.1998 16.7842 33.3951 14.4381 33.2146H6.13617Z" fill="#5E2569"/>
<path fill-rule="evenodd" clip-rule="evenodd" d="M0.360952 21.3032H0L4.33142 29.6051H14.4381C16.7843 29.6051 18.589 27.9808 18.7695 25.6346C18.7695 25.6346 18.7695 25.6346 18.7695 25.4542V21.3032H0.360952Z" fill="#5E2569"/>
<path fill-rule="evenodd" clip-rule="evenodd" d="M6.13617 33.2146L10.4676 41.8774H18.589V37.546C18.589 35.1998 16.7842 33.3951 14.4381 33.2146H6.13617Z" fill="#5E2569"/>
<path d="M41.5094 0.00708008L33.2075 4.3385V14.4451C33.2075 16.7913 35.1928 18.7766 37.5389 18.7766H41.8704V0.368032L41.5094 0.00708008Z" fill="#5E2569"/>
<path d="M21.2961 10.4747V18.7766H25.6276C27.9737 18.7766 29.7785 16.9719 29.7785 14.6257C29.7785 14.6257 29.7785 14.6257 29.7785 14.4452V6.14331L21.2961 10.4747Z" fill="#5E2569"/>
<path fill-rule="evenodd" clip-rule="evenodd" d="M41.5094 0.00708008L33.2075 4.3385V14.4451C33.2075 16.7913 35.1928 18.7766 37.5389 18.7766H41.8704V0.368032L41.5094 0.00708008Z" fill="#5E2569"/>
<path fill-rule="evenodd" clip-rule="evenodd" d="M21.2961 10.4747V18.7766H25.6276C27.9737 18.7766 29.7785 16.9719 29.7785 14.6257C29.7785 14.6257 29.7785 14.6257 29.7785 14.4452V6.14331L21.2961 10.4747Z" fill="#5E2569"/>
<path d="M44.2166 21.3032V25.6346C44.2166 27.9808 46.2018 29.9661 48.548 29.9661H56.8499L52.5184 21.3032H44.2166Z" fill="#5E2569"/>
<path d="M48.548 33.2146C46.2018 33.2146 44.2166 35.1998 44.2166 37.546V41.8774H62.986L58.6546 33.3951H48.548V33.2146Z" fill="#5E2569"/>
<path fill-rule="evenodd" clip-rule="evenodd" d="M44.2166 21.3032V25.6346C44.2166 27.9808 46.2018 29.9661 48.548 29.9661H56.8499L52.5184 21.3032H44.2166Z" fill="#5E2569"/>
<path fill-rule="evenodd" clip-rule="evenodd" d="M48.548 33.2146C46.2018 33.2146 44.2166 35.1998 44.2166 37.546V41.8774H62.986L58.6546 33.3951H48.548V33.2146Z" fill="#5E2569"/>
<path fill-rule="evenodd" clip-rule="evenodd" d="M37.5389 44.4041C35.1928 44.4041 33.2075 46.3893 33.2075 48.7355V57.0374L41.8704 52.7059V44.4041H37.5389Z" fill="#5E2569"/>
<path fill-rule="evenodd" clip-rule="evenodd" d="M21.2961 44.4041V62.9931L29.598 58.8421V48.7355C29.598 46.3893 27.9737 44.5845 25.6276 44.4041C25.6276 44.4041 25.6276 44.4041 25.4471 44.4041H21.2961Z" fill="#5E2569"/>
<path fill-rule="evenodd" clip-rule="evenodd" d="M0.360952 21.3032H0L4.33142 29.6051H14.4381C16.7843 29.6051 18.589 27.9808 18.7695 25.6346C18.7695 25.6346 18.7695 25.6346 18.7695 25.4542V21.3032H0.360952Z" fill="#5E2569"/>
<path fill-rule="evenodd" clip-rule="evenodd" d="M6.13617 33.2146L10.4676 41.8774H18.589V37.546C18.589 35.1998 16.7842 33.3951 14.4381 33.2146H6.13617Z" fill="#5E2569"/>
<path fill-rule="evenodd" clip-rule="evenodd" d="M41.5094 0.00708008L33.2075 4.3385V14.4451C33.2075 16.7913 35.1928 18.7766 37.5389 18.7766H41.8704V0.368032L41.5094 0.00708008Z" fill="#5E2569"/>
<path fill-rule="evenodd" clip-rule="evenodd" d="M21.2961 10.4747V18.7766H25.6276C27.9737 18.7766 29.7785 16.9719 29.7785 14.6257C29.7785 14.6257 29.7785 14.6257 29.7785 14.4452V6.14331L21.2961 10.4747Z" fill="#5E2569"/>
<path d="M37.5389 44.4041C35.1928 44.4041 33.2075 46.3893 33.2075 48.7355V57.0374L41.8704 52.7059V44.4041H37.5389Z" fill="#5E2569"/>
<path d="M21.2961 44.4041V62.9931L29.598 58.8421V48.7355C29.598 46.3893 27.9737 44.5845 25.6276 44.4041C25.6276 44.4041 25.6276 44.4041 25.4471 44.4041H21.2961Z" fill="#5E2569"/>
<path d="M0.360952 21.3032H0L4.33142 29.6051H14.4381C16.7843 29.6051 18.589 27.9808 18.7695 25.6346C18.7695 25.6346 18.7695 25.6346 18.7695 25.4542V21.3032H0.360952Z" fill="#5E2569"/>
<path d="M6.13617 33.2146L10.4676 41.8774H18.589V37.546C18.589 35.1998 16.7842 33.3951 14.4381 33.2146H6.13617Z" fill="#5E2569"/>
<path d="M41.5094 0.00708008L33.2075 4.3385V14.4451C33.2075 16.7913 35.1928 18.7766 37.5389 18.7766H41.8704V0.368032L41.5094 0.00708008Z" fill="#5E2569"/>
<path d="M21.2961 10.4747V18.7766H25.6276C27.9737 18.7766 29.7785 16.9719 29.7785 14.6257C29.7785 14.6257 29.7785 14.6257 29.7785 14.4452V6.14331L21.2961 10.4747Z" fill="#5E2569"/>
<path fill-rule="evenodd" clip-rule="evenodd" d="M66.7761 37.7266H68.0394V39.1704C69.1222 40.0728 70.566 40.4337 72.0099 40.6142C74.1756 40.7947 75.9803 39.3509 76.1608 37.1852C76.1608 37.0047 76.1608 36.8242 76.1608 36.6438C76.1608 34.1171 74.1756 33.0342 72.1903 31.9514C70.2051 30.8685 66.7761 28.8833 66.7761 25.6347C66.7761 24.1909 67.3175 22.7471 68.4003 21.8447C69.4832 20.7619 70.927 20.2205 72.5513 20.2205C74.356 20.2205 76.1608 20.5814 77.7851 21.1228V24.3714H76.3413V22.9276C75.2584 22.3862 73.9951 21.8447 72.7318 21.8447C70.927 21.8447 69.4832 23.469 69.4832 25.2738C69.4832 27.62 71.4684 28.5223 73.0927 29.6052C74.356 30.3271 75.6194 31.049 76.8827 31.9514C78.3265 33.0342 79.0484 34.6585 79.0484 36.2828C79.0484 40.0728 75.7998 42.2385 72.1903 42.2385C70.2051 42.2385 68.2199 41.8776 66.4151 41.1557L66.7761 37.7266Z" fill="#5E2569"/>
<path fill-rule="evenodd" clip-rule="evenodd" d="M87.3503 22.3862H83.7408L81.5751 22.5667L81.3946 24.0105L79.9508 24.1909L79.7703 20.9424H97.6374L97.457 24.1909L96.0131 24.0105V22.5667L93.667 22.3862H90.0574V37.5462L90.2379 40.0728L91.5013 40.2533L91.6817 41.6971H85.726L85.9065 40.2533L87.1698 40.0728L87.3503 37.5462V22.3862Z" fill="#5E2569"/>
<path fill-rule="evenodd" clip-rule="evenodd" d="M104.495 31.2294C105.939 31.4099 107.564 31.0489 108.827 30.1465C109.91 29.0637 110.632 27.6199 110.451 26.1761C110.451 23.6494 108.827 22.3861 106.3 22.3861L103.954 22.747V31.0489H104.495V31.2294ZM103.954 40.2532H104.856V41.697H99.4422V40.2532H101.066V22.747H99.8031V21.3032H107.383C108.827 21.3032 110.271 21.6642 111.534 22.3861C112.797 23.2885 113.519 24.7323 113.519 26.3565C113.519 29.0637 111.895 31.5903 109.188 32.3122L113.158 38.0875L114.783 40.4337H116.046V41.697H111.895L106.481 32.6732H103.954V40.2532Z" fill="#5E2569"/>
<path fill-rule="evenodd" clip-rule="evenodd" d="M128.499 34.117L124.709 24.3713L121.099 34.117H128.499ZM118.753 40.0727H120.016V41.5165H115.685V40.0727H116.587L117.851 37.1851L124.528 20.5813H126.153L133.011 37.7265L134.094 40.0727H134.996V41.5165H129.401V40.0727H130.845L128.86 35.3803H120.377L118.753 40.0727Z" fill="#5E2569"/>
<path fill-rule="evenodd" clip-rule="evenodd" d="M139.869 22.3862H136.259L133.913 22.5667V24.0105L132.469 24.1909L132.289 20.9424H150.156L149.975 24.1909L148.712 24.0105L148.532 22.5667L146.185 22.3862H142.576V37.5462L142.756 40.0728L144.02 40.2533L144.2 41.6971H138.425V40.2533L139.688 40.0728L139.869 37.5462V22.3862Z" fill="#5E2569"/>
<path fill-rule="evenodd" clip-rule="evenodd" d="M151.239 41.6971L151.419 40.2533L152.502 40.0728L152.683 37.5462V25.0933L152.502 22.5667L151.419 22.3862L151.239 20.9424H164.233L164.053 24.0105L162.609 23.83V22.5667L159.541 22.3862H155.57V30.1466H162.609V31.7709L158.999 31.5905H155.39V37.5462L155.57 40.0728H160.263L163.15 39.8923V38.4485L164.594 38.2681L164.774 41.6971H151.239Z" fill="#5E2569"/>
<path fill-rule="evenodd" clip-rule="evenodd" d="M179.573 35.0194H177.949V33.5756H183.905V35.0194H182.642V40.9751C180.476 41.697 178.31 42.058 176.144 42.058C169.467 42.058 166.038 37.3656 166.038 31.2294C166.038 28.5223 166.579 25.8152 168.023 23.469C170.008 21.4837 172.715 20.2204 175.603 20.4009C177.949 20.4009 180.295 20.7618 182.461 21.4837V25.0933H181.198V23.469C179.754 22.5666 177.949 22.0252 176.144 21.8447C170.911 21.8447 169.106 27.259 169.106 31.5904C169.106 35.9218 171.632 40.6142 177.047 40.6142C178.13 40.6142 179.032 40.6142 180.115 40.2532V35.0194H179.573Z" fill="#5E2569"/>
<path fill-rule="evenodd" clip-rule="evenodd" d="M186.612 24.9128L184.988 22.5667L184.085 22.3862V20.9424H189.861V22.3862L188.417 22.5667L193.109 30.5076L197.982 22.5667L196.719 22.3862L196.538 20.9424H201.05L200.87 22.3862L199.967 22.5667L197.982 25.4543L193.651 32.4928V37.5462L193.831 40.0728L195.094 40.2533L195.275 41.6971H189.5V40.2533L190.763 40.0728L190.943 37.5462V32.4928L186.612 24.9128Z" fill="#5E2569"/>
<path fill-rule="evenodd" clip-rule="evenodd" d="M203.577 25.0933L203.396 22.5667L202.133 22.3862V20.9424H205.742L216.571 37.7266V25.0933L216.39 22.5667L215.127 22.3862L214.947 20.9424H220L219.82 22.3862L218.737 22.5667L218.556 25.0933V41.8776H216.21L205.562 25.2738V37.5462L205.742 40.0728L207.006 40.2533V41.6971H202.133V40.2533L203.396 40.0728L203.577 37.5462V25.0933Z" fill="#5E2569"/>
</g>
<defs>
<clipPath id="clip0_1_7767">
<rect width="220" height="62.9861" fill="white" transform="translate(0 0.00708008)"/>
</clipPath>
</defs>
</svg>
