<svg width="32" height="32" viewBox="0 0 32 32" fill="none" xmlns="http://www.w3.org/2000/svg">
<rect width="32" height="32" rx="16" fill="#763B82"/>
<path d="M13.5625 16.125C15.3398 16.125 16.8125 14.6777 16.8125 12.875C16.8125 11.0977 15.3398 9.625 13.5625 9.625C11.7598 9.625 10.3125 11.0977 10.3125 12.875C10.3125 14.6777 11.7598 16.125 13.5625 16.125ZM14.832 17.3438H12.2676C9.83008 17.3438 7.875 19.3242 7.875 21.7617C7.875 22.2441 8.25586 22.625 8.73828 22.625H18.3613C18.8438 22.625 19.25 22.2441 19.25 21.7617C19.25 19.3242 17.2695 17.3438 14.832 17.3438ZM20.0371 17.75H18.1582C19.3262 18.7148 20.0625 20.1621 20.0625 21.7617C20.0625 22.0918 19.9609 22.3711 19.8086 22.625H23.3125C23.7441 22.625 24.125 22.2695 24.125 21.8125C24.125 19.5781 22.2969 17.75 20.0371 17.75ZM18.8438 16.125C20.3926 16.125 21.6875 14.8555 21.6875 13.2812C21.6875 11.7324 20.3926 10.4375 18.8438 10.4375C18.1836 10.4375 17.5996 10.666 17.1426 11.0215C17.4219 11.5801 17.625 12.2148 17.625 12.875C17.625 13.7891 17.3203 14.627 16.8125 15.2871C17.3203 15.8203 18.0312 16.125 18.8438 16.125Z" fill="white"/>
</svg>
