<svg width="32" height="32" viewBox="0 0 32 32" fill="none" xmlns="http://www.w3.org/2000/svg">
<rect width="32" height="32" rx="16" fill="#763B82"/>
<path d="M22.9062 9.625H13.1562C12.4707 9.625 11.9375 10.209 11.9375 10.8945V12.0625C12.5215 12.0625 13.0801 12.2402 13.5371 12.5195V11.25H22.4746V18.5625H20.8496V17.3438C20.8496 17.1406 20.6465 16.9375 20.4434 16.9375H18.0059C17.7773 16.9375 17.5996 17.1406 17.5996 17.3438V18.5625H15.1621C15.7207 18.9941 16.1523 19.5527 16.457 20.1875H22.8809C23.5664 20.1875 24.125 19.6289 24.125 18.9434V10.8945C24.125 10.209 23.5664 9.625 22.9062 9.625ZM11.9375 17.75C13.2832 17.75 14.375 16.6836 14.375 15.3125C14.375 13.9668 13.2832 12.875 11.9375 12.875C10.5664 12.875 9.5 13.9668 9.5 15.3125C9.5 16.6582 10.5664 17.75 11.9375 17.75ZM12.75 18.5625H11.125C9.32227 18.5625 7.875 20.0352 7.875 21.8125C7.875 22.2695 8.23047 22.625 8.6875 22.625H15.1875C15.6191 22.625 16 22.2695 16 21.8125C16 20.0352 14.5273 18.5625 12.75 18.5625Z" fill="white"/>
</svg>
