<svg width="32" height="32" viewBox="0 0 32 32" fill="none" xmlns="http://www.w3.org/2000/svg">
<rect width="32" height="32" rx="16" fill="#763B82"/>
<path d="M22.2461 14.2715L21.1035 13.1289C20.9512 12.9766 20.748 12.875 20.5195 12.875H19.25V11.6562C19.25 10.9961 18.6914 10.4375 18.0312 10.4375H13.9688C13.2832 10.4375 12.75 10.9961 12.75 11.6562V12.875H11.4551C11.2266 12.875 11.0234 12.9766 10.8711 13.1289L9.72852 14.2715C9.57617 14.4238 9.5 14.627 9.5 14.8555V17.3438H12.75V16.5312C12.75 16.3281 12.9277 16.125 13.1562 16.125H13.9688C14.1719 16.125 14.375 16.3281 14.375 16.5312V17.3438H17.625V16.5312C17.625 16.3281 17.8027 16.125 18.0312 16.125H18.8438C19.0469 16.125 19.25 16.3281 19.25 16.5312V17.3438H22.5V14.8555C22.5 14.627 22.3984 14.4238 22.2461 14.2715ZM18.0312 12.875H13.9688V11.6562H18.0312V12.875ZM19.25 18.9688C19.25 19.1973 19.0469 19.375 18.8438 19.375H18.0312C17.8027 19.375 17.625 19.1973 17.625 18.9688V18.1562H14.375V18.9688C14.375 19.1973 14.1719 19.375 13.9688 19.375H13.1562C12.9277 19.375 12.75 19.1973 12.75 18.9688V18.1562H9.5V21C9.5 21.457 9.85547 21.8125 10.3125 21.8125H21.6875C22.1191 21.8125 22.5 21.457 22.5 21V18.1562H19.25V18.9688Z" fill="white"/>
</svg>
