<svg width="20" height="21" viewBox="0 0 20 21" fill="none" xmlns="http://www.w3.org/2000/svg">
<path d="M10 0.5C4.45312 0.5 0 4.99219 0 10.5C0 16.0469 4.45312 20.5 10 20.5C15.5078 20.5 20 16.0469 20 10.5C20 4.99219 15.5078 0.5 10 0.5ZM9.0625 6.4375C9.0625 5.92969 9.45312 5.5 10 5.5C10.5078 5.5 10.9375 5.92969 10.9375 6.4375V11.4375C10.9375 11.9844 10.5078 12.375 10 12.375C9.45312 12.375 9.0625 11.9844 9.0625 11.4375V6.4375ZM10 16.125C9.29688 16.125 8.75 15.5781 8.75 14.9141C8.75 14.25 9.29688 13.7031 10 13.7031C10.6641 13.7031 11.2109 14.25 11.2109 14.9141C11.2109 15.5781 10.6641 16.125 10 16.125Z" fill="#FAFAFA"/>
</svg>
